<svg xmlns="http://www.w3.org/2000/svg" fill="none" viewBox="0 0 1920 520"><mask id="waves_svg__a" width="704" height="234" x="0" y="190" maskUnits="userSpaceOnUse" style="mask-type:alpha"><path fill="#D9D9D9" d="M0 190h704v234H0z"/></mask><g stroke-miterlimit="10" mask="url(#waves_svg__a)"><path stroke="#E3E4E9" d="M-133.658 75.56a371.8 371.8 0 0 1 100.702 87.037c66.078 82.782 57.07 148.432 94.985 158.702 58.589 15.865 96.421-136.544 219.602-160.629 90.346-17.676 182.278 42.383 203.557 56.299 83.014 54.223 94.021 114.299 153.543 115.896 43.54 1.215 56.4-30.4 124.488-43.791 47.401-9.32 88.891-3.399 116.854 3.181"/><path stroke="#C7C9D1" stroke-dasharray="2 2" d="M-133.621 82.74a372.1 372.1 0 0 1 100.718 87.051c66.08 82.797 57.07 148.432 94.97 158.703 58.604 15.863 96.437-136.546 219.602-160.629 90.363-17.662 182.295 42.397 203.573 56.297 83.014 54.223 94.005 114.301 153.542 115.897 43.541 1.215 56.385-30.399 124.489-43.791 47.416-9.322 88.89-3.399 116.854 3.181"/><path stroke="#E3E4E9" d="M-133.582 89.92A371.8 371.8 0 0 1-32.864 176.97c66.08 82.797 57.07 148.431 94.986 158.702 58.542 15.868 96.436-136.546 219.601-160.629 90.348-17.661 182.28 42.398 203.558 56.298 83.015 54.238 94.02 114.299 153.542 115.896 43.541 1.215 56.399-30.414 124.488-43.805 47.416-9.322 88.89-3.399 116.854 3.181"/><path stroke="#E3E4E9" d="M-133.514 97.096a372.1 372.1 0 0 1 100.705 87.067C33.27 266.96 24.26 332.595 62.16 342.866c58.604 15.863 96.436-136.546 219.601-160.629 90.363-17.662 182.295 42.397 203.573 56.297 83.015 54.239 94.006 114.301 153.543 115.897 43.54 1.215 56.383-30.414 124.487-43.806 47.416-9.322 88.891-3.399 116.854 3.181"/><path stroke="#E3E4E9" d="M-133.49 104.275a372.1 372.1 0 0 1 100.718 87.051C33.323 274.122 24.3 339.773 62.213 350.028c58.589 15.865 96.437-136.546 219.602-160.629 90.363-17.662 182.28 42.398 203.573 56.297 83 54.24 94.005 114.301 153.527 115.898 43.541 1.215 56.399-30.415 124.488-43.806 47.416-9.322 88.891-3.384 116.853 3.181"/><path stroke="#E3E4E9" d="M-133.438 111.453a372.3 372.3 0 0 1 100.72 87.051c66.078 82.797 57.07 148.447 94.969 158.703 58.558 15.867 96.436-136.546 219.612-160.691 90.348-17.661 182.28 42.398 203.557 56.298 83.016 54.238 94.006 114.3 153.543 115.896 43.541 1.215 56.384-30.413 124.488-43.805 47.416-9.322 88.891-3.384 116.869 3.179"/><path stroke="#C7C9D1" stroke-dasharray="2 2" d="M-133.367 118.646a371.9 371.9 0 0 1 100.69 87.084c66.095 82.796 57.07 148.447 94.985 158.702 58.59 15.88 96.438-136.53 219.603-160.613 90.362-17.678 182.279 42.383 203.572 56.281 83 54.24 94.005 114.301 153.527 115.898 43.541 1.215 56.399-30.415 124.487-43.806 47.418-9.306 88.892-3.383 116.854 3.181"/><path stroke="#E3E4E9" d="M-133.35 125.764a371.8 371.8 0 0 1 100.719 87.051c66.078 82.781 57.07 148.431 94.97 158.703 58.604 15.863 96.436-136.546 219.617-160.631 90.346-17.676 182.278 42.383 203.557 56.299 83.014 54.223 94.005 114.285 153.543 115.896 43.54 1.215 56.399-30.415 124.488-43.79 47.401-9.321 88.876-3.398 116.854 3.181"/><path stroke="#E3E4E9" d="M-133.307 133.002a372.1 372.1 0 0 1 100.734 87.05c66.078 82.781 57.055 148.432 94.97 158.703 58.558 15.867 96.437-136.546 219.598-160.675 90.362-17.678 182.279 42.383 203.573 56.297 82.999 54.224 94.005 114.3 153.527 115.898 43.541 1.214 56.4-30.4 124.489-43.791 47.416-9.322 88.89-3.399 116.854 3.181"/><path stroke="#E3E4E9" d="M-133.223 140.178A372.1 372.1 0 0 1-32.53 227.292c66.08 82.797 57.07 148.432 94.985 158.702 58.589 15.865 96.421-136.544 219.602-160.629 90.346-17.676 182.279 42.383 203.557 56.299 83.014 54.223 94.006 114.3 153.543 115.896 43.54 1.215 56.4-30.4 124.489-43.791 47.401-9.32 88.875-3.397 116.854 3.181"/><path stroke="#C7C9D1" stroke-dasharray="2 2" d="M-133.203 147.328a372.3 372.3 0 0 1 100.718 87.051c66.08 82.797 57.07 148.432 94.97 158.703 58.589 15.864 96.437-136.546 219.602-160.629 90.363-17.662 182.28 42.398 203.573 56.297 82.998 54.224 94.005 114.301 153.542 115.897 43.526 1.216 56.385-30.399 124.489-43.791 47.416-9.322 88.89-3.399 116.854 3.181"/><path stroke="#E3E4E9" d="M-133.162 154.537a372.1 372.1 0 0 1 100.718 87.051c66.08 82.797 57.07 148.432 94.985 158.702 58.589 15.864 96.422-136.545 219.602-160.629 90.348-17.661 182.28 42.398 203.558 56.298 83.015 54.239 94.005 114.301 153.542 115.897 43.541 1.214 56.399-30.415 124.488-43.806 47.401-9.321 88.875-3.398 116.854 3.181"/><path stroke="#C7C9D1" stroke-dasharray="2 2" d="M-133.078 161.713A372.6 372.6 0 0 1-32.36 248.764c66.08 82.797 57.07 148.431 94.97 158.703 58.557 15.851 96.432-136.607 219.571-160.627 90.363-17.662 182.28 42.399 203.573 56.297 83 54.24 94.006 114.301 153.543 115.897 43.525 1.216 56.383-30.414 124.487-43.806 47.416-9.322 88.892-3.384 116.854 3.181"/><path stroke="#E3E4E9" d="M-133.072 168.895a372.1 372.1 0 0 1 100.718 87.05c66.08 82.797 57.071 148.447 94.985 158.702 58.589 15.865 96.422-136.544 219.602-160.629 90.348-17.661 182.28 42.399 203.542 56.3 83.016 54.238 94.006 114.3 153.543 115.896 43.54 1.215 56.399-30.415 124.487-43.806 47.401-9.32 88.877-3.382 116.854 3.181"/><path stroke="#E3E4E9" d="M-133.018 176.072a372.3 372.3 0 0 1 100.719 87.051c66.079 82.797 57.07 148.447 94.97 158.703 58.573 15.866 96.436-136.546 219.603-160.613 90.363-17.663 182.279 42.398 203.572 56.297 83 54.239 94.006 114.3 153.543 115.896 43.525 1.216 56.384-30.414 124.487-43.806 47.418-9.306 88.892-3.383 116.854 3.181"/><path stroke="#C7C9D1" stroke-dasharray="2 2" d="M-132.932 183.262a371.6 371.6 0 0 1 100.719 87.051c66.078 82.781 57.07 148.431 94.984 158.686 58.544 15.884 96.419-136.575 219.557-160.61 90.346-17.676 182.278 42.383 203.556 56.283 83.015 54.238 94.006 114.3 153.543 115.897 43.54 1.214 56.399-30.415 124.487-43.806 47.402-9.306 88.877-3.383 116.854 3.181"/><path stroke="#E3E4E9" d="M-132.924 190.459A371.8 371.8 0 0 1-32.205 277.51c66.078 82.781 57.07 148.431 94.97 158.703 58.588 15.864 96.436-136.546 219.601-160.629 90.362-17.678 182.279 42.383 203.573 56.297 82.999 54.224 94.005 114.3 153.542 115.897 43.541 1.214 56.385-30.399 124.489-43.791 47.417-9.322 88.891-3.399 116.854 3.181"/><path stroke="#E3E4E9" d="M-132.889 197.623A371.8 371.8 0 0 1-32.17 284.674c66.078 82.781 57.07 148.431 94.985 158.702 58.573 15.865 96.421-136.545 219.604-160.599 90.347-17.676 182.279 42.383 203.557 56.299 83.015 54.223 94.006 114.3 153.543 115.896 43.541 1.215 56.4-30.399 124.489-43.79 47.401-9.321 88.875-3.398 116.854 3.181"/><path stroke="#C7C9D1" stroke-dasharray="2 2" d="M-132.789 204.797a372.1 372.1 0 0 1 100.718 87.051C34.01 374.644 25 440.279 62.9 450.551c58.546 15.898 96.436-136.561 219.556-160.626 90.363-17.662 182.295 42.398 203.573 56.298 82.999 54.224 94.005 114.3 153.542 115.896 43.541 1.215 56.385-30.398 124.489-43.79 47.416-9.323 88.891-3.4 116.854 3.181"/><path stroke="#E3E4E9" d="M-132.793 212.025a371.8 371.8 0 0 1 100.719 87.051c66.079 82.797 57.07 148.432 94.985 158.702 58.588 15.865 96.421-136.544 219.601-160.629 90.344-17.707 182.277 42.353 203.554 56.253 83.016 54.238 94.006 114.3 153.543 115.896 43.54 1.215 56.399-30.415 124.487-43.806 47.401-9.321 88.876-3.398 116.854 3.181"/><path stroke="#C7C9D1" stroke-dasharray="2 2" d="M-132.742 219.158a372.1 372.1 0 0 1 100.718 87.051c66.08 82.797 57.07 148.432 94.97 158.703 58.589 15.865 96.437-136.546 219.607-160.568 90.363-17.662 182.295 42.398 203.572 56.298 83 54.239 94.006 114.3 153.543 115.896 43.541 1.215 56.384-30.414 124.487-43.806 47.417-9.322 88.891-3.399 116.854 3.181"/><path stroke="#E3E4E9" d="M-132.643 226.332a372.1 372.1 0 0 1 100.719 87.051c66.079 82.797 57.07 148.447 94.985 158.702 58.532 15.93 96.423-136.53 219.54-160.624 90.348-17.661 182.28 42.398 203.558 56.298 83.015 54.238 94.006 114.3 153.543 115.896 43.54 1.215 56.399-30.415 124.487-43.805 47.401-9.321 88.892-3.384 116.854 3.181"/><path stroke="#E3E4E9" d="M-132.645 233.59a372.3 372.3 0 0 1 100.719 87.051c66.08 82.796 57.07 148.447 94.97 158.703 58.589 15.864 96.436-136.546 219.601-160.629 90.357-17.739 182.29 42.32 203.567 56.22 83.016 54.239 94.006 114.301 153.543 115.897 43.54 1.215 56.383-30.414 124.487-43.806 47.417-9.322 88.892-3.384 116.854 3.181"/><path stroke="#E3E4E9" d="M-132.611 240.709a371.8 371.8 0 0 1 100.717 87.036c66.08 82.796 57.07 148.446 94.985 158.701 58.59 15.88 96.423-136.529 219.602-160.629 90.347-17.661 182.28 42.399 203.557 56.299 83.016 54.238 94.021 114.299 153.543 115.896 43.54 1.215 56.399-30.415 124.487-43.806 47.403-9.305 88.892-3.383 116.854 3.181"/><path stroke="#C7C9D1" stroke-dasharray="2 2" d="M-132.498 247.879A371.8 371.8 0 0 1-31.78 334.93c66.078 82.781 57.07 148.431 94.97 158.703 58.549 15.944 96.439-136.515 219.541-160.624 90.362-17.678 182.294 42.381 203.572 56.297 83.015 54.223 94.005 114.285 153.543 115.896 43.541 1.215 56.384-30.413 124.489-43.79 47.416-9.322 88.89-3.399 116.854 3.181"/><path stroke="#E3E4E9" d="M-132.52 255.062a371.8 371.8 0 0 1 100.719 87.051c66.078 82.782 57.07 148.432 94.985 158.702 58.589 15.865 96.437-136.546 219.602-160.629 90.346-17.676 182.275 42.337 203.572 56.297 82.999 54.225 94.006 114.301 153.528 115.898 43.54 1.215 56.4-30.4 124.488-43.79 47.417-9.323 88.891-3.4 116.854 3.181"/><path stroke="#E3E4E9" d="M-132.467 262.24a372.1 372.1 0 0 1 100.719 87.051c66.079 82.797 57.07 148.432 94.97 158.703 58.604 15.863 96.436-136.546 219.601-160.629 90.362-17.677 182.294 42.382 203.573 56.297 83.014 54.223 94.005 114.301 153.542 115.897 43.541 1.214 56.385-30.399 124.489-43.791 47.417-9.322 88.891-3.399 116.854 3.181"/></g><path stroke="#C7C9D1" d="M.5 190.5h703v233H.5zM340.5 95.5h267v95h-267z"/><path stroke="#C7C9D1" stroke-dasharray="3 3" d="M385 423v96H85"/><path stroke="#C7C9D1" d="M245.5 95.5h95v95h-95zM114.5.5h95v95h-95zM.5 95.5h245v95H.5z"/><circle cx="340.5" cy="189.5" r="2.5" fill="#5E616E"/><circle cx="385.5" cy="423.5" r="2.5" fill="#5E616E"/><circle cx="245.5" cy="189.5" r="2.5" fill="#5E616E"/><mask id="waves_svg__b" width="704" height="234" x="1216" y="95" maskUnits="userSpaceOnUse" style="mask-type:alpha"><path fill="#D9D9D9" d="M1920 329h-704V95h704z"/></mask><g stroke-miterlimit="10" mask="url(#waves_svg__b)"><path stroke="#E3E4E9" d="M852.342-62.44a371.8 371.8 0 0 1 100.702 87.037c66.076 82.782 57.066 148.432 94.986 158.702 58.59 15.865 96.42-136.544 219.6-160.629 90.35-17.676 182.28 42.383 203.56 56.299 83.01 54.223 94.02 114.299 153.54 115.896 43.54 1.215 56.4-30.4 124.49-43.791 47.4-9.32 88.89-3.399 116.85 3.181"/><path stroke="#E3E4E9" d="M852.379-55.26a372.1 372.1 0 0 1 100.718 87.051c66.083 82.797 57.073 148.432 94.973 158.703 58.6 15.863 96.43-136.546 219.6-160.629 90.36-17.662 182.29 42.397 203.57 56.297 83.02 54.223 94.01 114.301 153.54 115.897 43.54 1.215 56.39-30.399 124.49-43.791 47.42-9.322 88.89-3.399 116.86 3.181"/><path stroke="#C7C9D1" stroke-dasharray="2 2" d="M852.418-48.08a371.8 371.8 0 0 1 100.719 87.05c66.083 82.798 57.073 148.432 94.983 158.703 58.54 15.868 96.44-136.546 219.6-160.63 90.35-17.66 182.28 42.399 203.56 56.299 83.02 54.238 94.02 114.299 153.54 115.896 43.54 1.215 56.4-30.414 124.49-43.805 47.42-9.322 88.89-3.399 116.85 3.181"/><path stroke="#E3E4E9" d="M852.486-40.904a372.1 372.1 0 0 1 100.705 87.067c66.079 82.797 57.069 148.432 94.969 158.703 58.6 15.863 96.44-136.546 219.6-160.629 90.37-17.662 182.3 42.397 203.57 56.297 83.02 54.239 94.01 114.301 153.55 115.897 43.54 1.215 56.38-30.414 124.49-43.806 47.41-9.322 88.89-3.399 116.85 3.181"/><path stroke="#C7C9D1" stroke-dasharray="2 2" d="M852.51-33.725a372.1 372.1 0 0 1 100.718 87.051c66.092 82.796 57.072 148.447 94.982 158.702 58.59 15.865 96.44-136.546 219.61-160.629 90.36-17.662 182.27 42.399 203.57 56.297 83 54.24 94 114.301 153.53 115.898 43.54 1.215 56.39-30.415 124.48-43.806 47.42-9.322 88.89-3.384 116.86 3.181"/><path stroke="#E3E4E9" d="M852.562-26.547a372.3 372.3 0 0 1 100.719 87.051c66.079 82.797 57.069 148.447 94.969 158.703 58.56 15.867 96.44-136.546 219.61-160.691 90.35-17.661 182.28 42.398 203.56 56.298 83.02 54.238 94.01 114.3 153.54 115.896 43.54 1.215 56.39-30.413 124.49-43.805 47.42-9.322 88.89-3.384 116.87 3.179"/><path stroke="#C7C9D1" stroke-dasharray="2 2" d="M852.633-19.353a371.8 371.8 0 0 1 100.69 87.083c66.097 82.796 57.067 148.447 94.987 158.702 58.59 15.88 96.44-136.53 219.6-160.613 90.36-17.678 182.28 42.383 203.57 56.281 83 54.24 94.01 114.301 153.53 115.898 43.54 1.215 56.4-30.415 124.49-43.806 47.42-9.306 88.89-3.383 116.85 3.181"/><path stroke="#E3E4E9" d="M852.65-12.236a371.8 371.8 0 0 1 100.719 87.05c66.081 82.782 57.071 148.432 94.971 158.704 58.6 15.863 96.44-136.546 219.62-160.63 90.34-17.677 182.27 42.382 203.55 56.298 83.02 54.223 94.01 114.285 153.55 115.896 43.54 1.215 56.39-30.415 124.48-43.79 47.41-9.321 88.88-3.398 116.86 3.181"/><path stroke="#E3E4E9" d="M852.693-4.998a372.1 372.1 0 0 1 100.734 87.05c66.083 82.781 57.053 148.432 94.973 158.703 58.56 15.867 96.43-136.546 219.6-160.675 90.36-17.678 182.27 42.383 203.57 56.297 83 54.224 94 114.3 153.53 115.898 43.54 1.214 56.4-30.4 124.48-43.791 47.42-9.322 88.89-3.399 116.86 3.181"/><path stroke="#C7C9D1" stroke-dasharray="2 2" d="M852.777 2.178A372.1 372.1 0 0 1 953.47 89.292c66.08 82.797 57.07 148.432 94.99 158.702 58.58 15.865 96.42-136.544 219.6-160.629 90.34-17.676 182.28 42.383 203.55 56.299 83.02 54.223 94.01 114.3 153.55 115.896 43.54 1.215 56.4-30.4 124.49-43.791 47.4-9.32 88.87-3.397 116.85 3.181"/><path stroke="#E3E4E9" d="M852.797 9.328A372.4 372.4 0 0 1 953.515 96.38c66.075 82.797 57.075 148.432 94.975 158.703 58.58 15.864 96.43-136.546 219.6-160.629 90.36-17.662 182.28 42.398 203.57 56.297 83 54.224 94.01 114.301 153.54 115.897 43.53 1.216 56.39-30.399 124.49-43.791 47.42-9.322 88.89-3.399 116.85 3.181"/><path stroke="#E3E4E9" d="M852.838 16.537a372.1 372.1 0 0 1 100.718 87.051c66.084 82.797 57.074 148.432 94.984 158.702 58.59 15.864 96.42-136.545 219.6-160.629 90.35-17.661 182.28 42.398 203.56 56.298 83.02 54.239 94.01 114.301 153.54 115.897 43.54 1.214 56.4-30.415 124.49-43.806 47.4-9.321 88.88-3.398 116.85 3.181"/><path stroke="#C7C9D1" stroke-dasharray="2 2" d="M852.922 23.713a372.6 372.6 0 0 1 100.718 87.051c66.08 82.797 57.07 148.431 94.97 158.703 58.56 15.851 96.43-136.607 219.57-160.627 90.36-17.662 182.28 42.399 203.57 56.297 83 54.24 94.01 114.301 153.55 115.897 43.52 1.216 56.38-30.414 124.48-43.806 47.42-9.322 88.9-3.384 116.86 3.181"/><path stroke="#E3E4E9" d="M852.928 30.895a372.1 372.1 0 0 1 100.718 87.05c66.084 82.797 57.074 148.447 94.984 158.702 58.59 15.865 96.42-136.544 219.6-160.629 90.35-17.66 182.28 42.399 203.55 56.3 83.01 54.238 94 114.3 153.54 115.896 43.54 1.215 56.4-30.415 124.49-43.806 47.4-9.32 88.87-3.382 116.85 3.181"/><path stroke="#C7C9D1" stroke-dasharray="2 2" d="M852.982 38.072a372.4 372.4 0 0 1 100.719 87.051c66.079 82.797 57.069 148.447 94.969 158.703 58.57 15.866 96.44-136.546 219.6-160.613 90.37-17.663 182.28 42.398 203.58 56.297 83 54.239 94 114.3 153.54 115.896 43.52 1.216 56.38-30.414 124.49-43.806 47.41-9.306 88.89-3.383 116.85 3.181"/><path stroke="#E3E4E9" d="M853.068 45.262a371.6 371.6 0 0 1 100.719 87.051c66.073 82.781 57.073 148.431 94.983 158.686 58.54 15.884 96.42-136.575 219.56-160.61 90.34-17.676 182.28 42.383 203.55 56.283 83.02 54.238 94.01 114.3 153.55 115.897 43.54 1.214 56.4-30.415 124.48-43.806 47.41-9.306 88.88-3.383 116.86 3.181"/><path stroke="#E3E4E9" d="M853.076 52.459a371.8 371.8 0 0 1 100.719 87.051c66.075 82.781 57.065 148.431 94.965 158.703 58.59 15.864 96.44-136.546 219.61-160.629 90.36-17.678 182.27 42.383 203.57 56.297 83 54.224 94 114.3 153.54 115.897 43.54 1.214 56.39-30.399 124.49-43.791 47.42-9.322 88.89-3.399 116.85 3.181"/><path stroke="#C7C9D1" stroke-dasharray="2 2" d="M853.111 59.623a371.8 371.8 0 0 1 100.719 87.051c66.08 82.781 57.07 148.431 94.98 158.702 58.58 15.865 96.43-136.545 219.61-160.599 90.35-17.676 182.28 42.383 203.56 56.299 83.01 54.223 94 114.3 153.54 115.896 43.54 1.215 56.4-30.399 124.49-43.79 47.4-9.321 88.87-3.398 116.85 3.181"/><path stroke="#E3E4E9" d="M853.211 66.797a372.1 372.1 0 0 1 100.718 87.051c66.081 82.796 57.071 148.431 94.971 158.703 58.54 15.898 96.43-136.561 219.55-160.626 90.37-17.662 182.3 42.398 203.58 56.298 83 54.224 94 114.3 153.54 115.896 43.54 1.215 56.39-30.398 124.49-43.79 47.42-9.323 88.89-3.4 116.85 3.181"/><path stroke="#E3E4E9" d="M853.207 74.025a371.9 371.9 0 0 1 100.719 87.051C1020 243.873 1011 309.508 1048.91 319.778c58.59 15.865 96.42-136.544 219.6-160.629 90.35-17.707 182.28 42.353 203.56 56.253 83.01 54.238 94 114.3 153.54 115.896 43.54 1.215 56.4-30.415 124.49-43.806 47.4-9.321 88.87-3.398 116.85 3.181"/><path stroke="#C7C9D1" stroke-dasharray="2 2" d="M853.258 81.158a372.1 372.1 0 0 1 100.718 87.051c66.084 82.797 57.074 148.432 94.974 158.703 58.58 15.865 96.43-136.546 219.6-160.568 90.37-17.662 182.3 42.398 203.58 56.298 83 54.239 94 114.3 153.54 115.896 43.54 1.215 56.38-30.414 124.49-43.806 47.41-9.322 88.89-3.399 116.85 3.181"/><path stroke="#E3E4E9" d="M853.357 88.332a372.1 372.1 0 0 1 100.719 87.051c66.084 82.797 57.074 148.447 94.984 158.702 58.53 15.93 96.42-136.53 219.54-160.624 90.35-17.661 182.28 42.398 203.56 56.298 83.01 54.238 94 114.3 153.54 115.896 43.54 1.215 56.4-30.415 124.49-43.805 47.4-9.321 88.89-3.384 116.85 3.181"/><path stroke="#C7C9D1" stroke-dasharray="2 2" d="M853.355 95.59a372.3 372.3 0 0 1 100.719 87.051c66.076 82.796 57.066 148.447 94.966 158.703 58.59 15.864 96.44-136.546 219.61-160.629 90.35-17.739 182.28 42.32 203.56 56.22 83.02 54.239 94.01 114.301 153.54 115.897 43.55 1.215 56.39-30.414 124.49-43.806 47.42-9.322 88.89-3.384 116.86 3.181"/><path stroke="#C7C9D1" stroke-dasharray="2 2" d="M853.389 102.709a371.8 371.8 0 0 1 100.717 87.036c66.084 82.796 57.074 148.446 94.984 158.701 58.59 15.88 96.42-136.529 219.6-160.629 90.35-17.661 182.28 42.399 203.56 56.299 83.02 54.238 94.02 114.299 153.54 115.896 43.54 1.215 56.4-30.415 124.49-43.806 47.4-9.305 88.89-3.383 116.85 3.181"/><path stroke="#E3E4E9" d="M853.502 109.879a371.8 371.8 0 0 1 100.719 87.051c66.079 82.781 57.069 148.431 94.969 158.703 58.55 15.944 96.44-136.515 219.54-160.624 90.36-17.678 182.29 42.381 203.57 56.297 83.02 54.223 94.01 114.285 153.55 115.896 43.54 1.215 56.38-30.413 124.48-43.79 47.42-9.322 88.9-3.399 116.86 3.181"/><path stroke="#E3E4E9" d="M853.48 117.062a371.8 371.8 0 0 1 100.719 87.051c66.081 82.782 57.071 148.432 94.981 158.702 58.59 15.865 96.44-136.546 219.61-160.629 90.34-17.676 182.27 42.337 203.57 56.297 83 54.225 94 114.301 153.53 115.898 43.54 1.215 56.4-30.4 124.48-43.79 47.42-9.323 88.9-3.4 116.86 3.181"/><path stroke="#E3E4E9" d="M853.533 124.24a372.1 372.1 0 0 1 100.719 87.051c66.078 82.797 57.068 148.432 94.968 158.703 58.61 15.863 96.44-136.546 219.6-160.629 90.36-17.677 182.3 42.382 203.58 56.297 83.01 54.223 94 114.301 153.54 115.897 43.54 1.214 56.38-30.399 124.49-43.791 47.41-9.322 88.89-3.399 116.85 3.181"/></g><path stroke="#C7C9D1" d="M1919.5 328.5h-703v-233h703z"/><path stroke="#C7C9D1" stroke-dasharray="3 3" d="M1580 424h-108v-96"/><path stroke="#C7C9D1" d="M1834.5 95.5h-202V.5h202zM1770.5 423.5h-191v-95h191zM1805.5 518.5h-173v-95h173zM1919.5 423.5h-149v-95h149z"/><circle cx="1632.5" cy="94.5" r="2.5" fill="#777A88"/><circle cx="1579.5" cy="328.5" r="2.5" fill="#777A88"/><circle cx="1771.5" cy="328.5" r="2.5" fill="#777A88"/></svg>