<svg xmlns="http://www.w3.org/2000/svg" viewBox="0 0 766.12 802.7"><title>Asset 1</title><g id="Layer_2" data-name="Layer 2"><g id="Layer_1-2" data-name="Layer 1"><path d="M497.28,802.7a28.54,28.54,0,0,1-4-3.3q-27-30.17-53.89-60.43l-101-113.48L227.94,501.56c-2.88-3.23-6-6.32-8.56-9.77s-4.38-2.9-7,.05c-15.91,18.18-32,36.24-48,54.34q-50.82,57.48-101.59,115c-2.38,2.7-4,2.55-6.49.14-22.79-22.54-39.46-48.81-49.11-79.48-1.15-3.64-.45-6.1,2-8.92Q60.83,514.4,112.16,455.7c11.86-13.53,23.66-27.12,35.62-40.56,2.09-2.35,2.25-3.83.09-6.25q-30.78-34.5-61.35-69.18Q43.92,291.65,1.42,243.5a7.32,7.32,0,0,1-1.27-5.74,180.26,180.26,0,0,1,45.13-81.63c5.58-5.86,5.66-5.72,11,.23q71.83,80.26,143.68,160.51c4.56,5.09,9.15,10.15,13.56,15.36,2.35,2.78,4,3.07,6.67.08,13.65-15.29,27.51-30.39,41.29-45.56,4.17-4.59,4.26-4.67,8.32-.09,20,22.55,39.93,45.2,60.06,67.65,2.63,2.94,2.39,4.58-.07,7.39-13.81,15.81-27.31,31.88-41.16,47.66-2.7,3.07-2.64,4.94,0,7.88q43.17,48.56,86.15,97.28,56,63.27,111.89,126.56,51,57.66,102.06,115.24c3.22,3.61,3.29,5.61-.52,8.65-24.4,19.46-52.3,30.85-82.8,36.37C503.1,801.76,500.79,802.11,497.28,802.7Z"/><path d="M547.75,315.31c7.56-8.44,14.66-16.35,21.73-24.29q66.33-74.47,132.59-149c2.65-3,4.39-2.46,6.89-.06,15.77,15.2,28,33,38,52.31,4.75,9.12,8.38,18.82,12.64,28.21,1.27,2.81.81,4.86-1.25,7.17Q705.15,289.34,652,349.15c-11.29,12.7-22.56,25.42-33.94,38-2.14,2.38-2.53,4-.16,6.69q70.31,79.61,140.46,159.37c9.08,10.3,9.37,10.29,5,23.17-9.49,27.71-25.12,51.65-45.25,72.8-3.21,3.38-5.18,3.19-8.26-.29q-78.6-88.64-157.38-177.12c-1.09-1.22-1.66-2.9-2.8-5-5.59,6-9.76,10.5-13.91,15-11.18,12.14-22.41,24.22-33.45,36.47-2.56,2.84-4.16,2.28-6.36-.23q-30.71-34.9-61.57-69.67c-2.49-2.79-1.48-4.44.62-6.68,14.49-15.43,28.79-31,43.36-46.38,2.95-3.11,2.88-4.94,0-8.16Q384.65,281.28,291.14,175.14L178.38,47.32c-.77-.87-1.47-1.82-2.3-2.64-2.36-2.34-2.15-4.22.75-5.95,7.29-4.34,14.27-9.27,21.84-13A347,347,0,0,1,264.72.34c2.83-.75,4.57-.3,6.49,1.89q61.44,69.77,123,139.44,58.23,65.94,116.49,131.86L543.81,311C544.9,312.21,546,313.41,547.75,315.31Z"/><path d="M604.38,50.14c-.69.92-1.32,1.88-2.08,2.74Q550.5,111.44,498.71,170c-2.37,2.68-3.86,2.78-6.29,0q-30.35-34.18-61-68.14c-2.42-2.68-2.54-4.34-.12-7,25.8-28.76,51.46-57.65,77.31-86.37a7.56,7.56,0,0,1,5.9-2c24.26,4.16,46.53,13.56,67.37,26.42C588.7,37.12,595,42,601.61,46.56a32.38,32.38,0,0,0,4.05,2Z"/><path d="M253,798.35c-2.9-.77-5.18-1.28-7.4-2-27.67-8.48-54.06-19.68-77.37-37.22-7.24-5.45-7.12-5.51-1.06-12.36q48.81-55.18,97.58-110.4c6.25-7.08,6.13-7,12.28-.14q28.57,32.08,57.32,64c3.05,3.37,3.38,5.42.12,9-26.3,28.75-52.37,57.7-78.54,86.56A29,29,0,0,1,253,798.35Z"/></g></g></svg>