<?xml version="1.0" encoding="utf-8"?>
<!-- Generator: Adobe Illustrator 23.1.0, SVG Export Plug-In . SVG Version: 6.00 Build 0)  -->
<svg version="1.1" id="Layer_1" xmlns="http://www.w3.org/2000/svg" xmlns:xlink="http://www.w3.org/1999/xlink" x="0px" y="0px"
	 viewBox="0 0 3000 3000" style="enable-background:new 0 0 3000 3000;" xml:space="preserve">
<style type="text/css">
	.st0{fill:#FFFFFF;}
</style>
<g>
	<path class="st0" d="M1154.1,1276c0-95.3,0-190.7,0-286c333.3,0,666.7,0,1000,0c0,95.3,0,190.7,0,286
		C1820.8,1276,1487.5,1276,1154.1,1276z M1582.1,1273.3c8-0.4,16-0.6,23.9-1.4c30-2.8,58.5-10.6,83.2-28.2
		c46-32.8,66-77.6,56.8-133.5c-7.7-46.7-35.4-79.4-77.9-99c-42.8-19.8-87.8-21.6-133.4-11.5c-34,7.6-63,24.1-84.5,52.2
		c-50.8,66.6-27.6,164.1,48.2,202.9C1524.8,1268.2,1552.9,1273.2,1582.1,1273.3z M1207.5,994.4c0,93,0,185.2,0,278
		c18.6,0,37,0.3,55.3-0.1c26.1-0.5,52.3-0.6,78.3-2.6c19.6-1.5,38.3-7.4,54.1-19.8c18.8-14.9,27-34.5,22.7-58.2
		c-3.2-18-14.1-31.6-29-41.4c-11.1-7.3-23.2-12.9-34.9-19.2c-2.9-1.6-6-2.8-9.7-4.5c2.5-1.1,4.2-1.8,5.8-2.6
		c11.4-6.1,23.7-11,34.2-18.5c36.3-26.1,34.7-76-7.9-96.4c-15.5-7.4-31.8-12.4-48.9-12.9c-36.1-1-72.3-1.2-108.4-1.7
		C1215.2,994.3,1211.4,994.4,1207.5,994.4z M1818.6,998c37.4,46.7,74.1,92.5,110.9,138.3c-5.4,6.8-10.4,13.2-15.5,19.6
		c7.3,9.8,14.4,19.2,21.7,28.9c6.1-6.6,11.9-12.9,17.8-19.3c1.5,1.7,2.5,2.8,3.4,4c26.4,32.2,52.9,64.4,79.2,96.6
		c2.1,2.5,4.2,3.7,7.5,3.7c16.8-0.2,33.7-0.1,50.5-0.1c1.3,0,2.7-0.2,4.8-0.4c-38.5-47-76.3-93.3-114.2-139.7
		c38.4-43.8,76.6-87.3,115.5-131.6c-17.2,0-33.1-0.1-49.1,0.1c-1.6,0-3.5,1.7-4.7,3c-17.9,20.7-35.7,41.4-53.5,62.1
		c-10.4,12.1-20.8,24.2-31.6,36.7c-1.5-1.7-2.6-3.1-3.8-4.4c-25.8-31.2-51.5-62.5-77.3-93.6c-1.4-1.7-3.8-3.7-5.8-3.7
		C1856.2,997.9,1838.1,998,1818.6,998z M1698.9,1269.7c3,0,4.6,0,6.2,0c12.3,0,24.7-0.2,37,0.1c3.9,0.1,6.4-1.2,8.9-4.1
		c26.9-30.9,53.9-61.7,81-92.5c2-2.3,4.2-4.6,6.4-7c1.6,1.9,2.7,3.2,3.9,4.6c25.7,31.7,51.4,63.4,77,95.2c2,2.5,4,3.8,7.5,3.8
		c16.5-0.2,33-0.1,49.5-0.1c1.5,0,3,0,5.7,0c-38.2-47.4-75.5-93.7-112.9-140.1c6-6.6,11.8-13,17.8-19.6
		c-7.7-9.6-15.2-18.9-22.6-28.1c-6.6,6.2-12.7,12-19.1,18c-1.5-1.8-3.2-3.8-4.9-5.9c-25.3-30.8-50.6-61.5-75.8-92.3
		c-2.2-2.7-4.4-3.9-7.9-3.8c-16.3,0.2-32.7,0.1-49,0.1c-1.6,0-3.2,0-5.8,0c38,46.9,75.3,92.9,112.7,138.9
		C1775.9,1181.1,1737.8,1224.9,1698.9,1269.7z M1940.1,1047.1c15-16.4,29.5-32.3,44.8-49.1c-16.3,0-31.1,0-46,0.1
		c-1.2,0-2.8,0.4-3.5,1.2c-6.3,6.9-12.4,13.9-18.7,21C1924.5,1029.2,1932.1,1037.9,1940.1,1047.1z M1814.1,1269.7
		c16.3,0,31,0,45.8,0c0.8,0,1.8-0.3,2.2-0.9c6.2-7.1,12.3-14.2,18.5-21.5c-8.2-9.1-15.9-17.8-24-26.8
		C1842.6,1236.7,1828.9,1252.6,1814.1,1269.7z"/>
	<path d="M1582.1,1273.3c-29.2-0.1-57.3-5-83.6-18.5c-75.8-38.8-99-136.3-48.2-202.9c21.4-28.1,50.5-44.6,84.5-52.2
		c45.6-10.2,90.5-8.4,133.4,11.5c42.4,19.6,70.2,52.3,77.9,99c9.2,55.9-10.8,100.8-56.8,133.5c-24.7,17.6-53.2,25.4-83.2,28.2
		C1598.1,1272.7,1590.1,1272.8,1582.1,1273.3z M1584.8,1240.9c5.2-0.3,10.3-0.4,15.5-1c26.1-2.8,48.5-13.2,65.4-33.6
		c22.8-27.5,29.6-59.6,23.9-94.3c-5.2-31.6-20.7-57.1-48.9-73.6c-21-12.4-44.2-15.6-68-13.4c-40.5,3.7-70.5,23.2-86.5,61.2
		c-13.5,32-12.4,64.4,1.9,96c10.2,22.6,26.7,39.2,49.5,49.3C1552.5,1238.4,1568.4,1240.7,1584.8,1240.9z"/>
	<path d="M1207.5,994.4c3.9,0,7.7,0,11.5,0c36.1,0.5,72.3,0.7,108.4,1.7c17.1,0.5,33.4,5.5,48.9,12.9c42.7,20.4,44.2,70.4,7.9,96.4
		c-10.4,7.5-22.7,12.4-34.2,18.5c-1.6,0.9-3.3,1.5-5.8,2.6c3.6,1.7,6.7,3,9.7,4.5c11.7,6.3,23.9,11.9,34.9,19.2
		c14.9,9.8,25.8,23.5,29,41.4c4.2,23.7-3.9,43.4-22.7,58.2c-15.8,12.5-34.6,18.4-54.1,19.8c-26,2-52.2,2.1-78.3,2.6
		c-18.3,0.4-36.6,0.1-55.3,0.1C1207.5,1179.6,1207.5,1087.4,1207.5,994.4z M1259.4,1244.2c21.6,1.7,42.6,2.1,63.6-1.8
		c13-2.4,25.6-6.1,36.2-14.5c11.6-9.1,16.1-21.2,14.3-35.7c-2.1-16.8-12.7-27-27-33.9c-17.6-8.5-36.5-11.2-55.7-12.1
		c-10.4-0.5-20.8-0.1-31.4-0.1C1259.4,1179,1259.4,1211.2,1259.4,1244.2z M1259.2,1111.6c16.5,0.9,32.4,0.7,48.1-2.3
		c12.4-2.3,24.3-5.8,34.5-13.5c21.9-16.5,20.3-48.6-3.3-62.5c-4.5-2.7-9.6-4.8-14.6-6.3c-17.8-5.4-36-5.8-54.4-4.6
		c-3.4,0.2-6.8,0.7-10.3,1C1259.2,1053,1259.2,1082,1259.2,1111.6z"/>
	<path d="M1818.6,998c19.4,0,37.6-0.1,55.7,0.2c2,0,4.4,2,5.8,3.7c25.9,31.2,51.6,62.4,77.3,93.6c1.1,1.4,2.3,2.7,3.8,4.4
		c10.8-12.5,21.2-24.6,31.6-36.7c17.8-20.7,35.6-41.4,53.5-62.1c1.2-1.4,3.1-3,4.7-3c16-0.2,31.9-0.1,49.1-0.1
		c-38.9,44.3-77,87.8-115.5,131.6c38,46.4,75.8,92.7,114.2,139.7c-2.2,0.2-3.5,0.4-4.8,0.4c-16.8,0-33.7-0.1-50.5,0.1
		c-3.4,0-5.5-1.1-7.5-3.7c-26.3-32.3-52.8-64.4-79.2-96.6c-0.9-1.2-1.9-2.3-3.4-4c-5.9,6.4-11.7,12.7-17.8,19.3
		c-7.3-9.7-14.4-19.2-21.7-28.9c5.1-6.4,10.1-12.8,15.5-19.6C1892.8,1090.5,1856.1,1044.7,1818.6,998z"/>
	<path d="M1698.9,1269.7c38.9-44.8,77-88.6,115.4-132.8c-37.4-46.1-74.6-92-112.7-138.9c2.6,0,4.2,0,5.8,0c16.3,0,32.7,0.1,49-0.1
		c3.6,0,5.8,1.2,7.9,3.8c25.2,30.8,50.5,61.6,75.8,92.3c1.7,2,3.4,4.1,4.9,5.9c6.4-6,12.5-11.8,19.1-18c7.4,9.2,14.9,18.5,22.6,28.1
		c-6,6.6-11.7,12.9-17.8,19.6c37.4,46.4,74.7,92.7,112.9,140.1c-2.7,0-4.2,0-5.7,0c-16.5,0-33-0.1-49.5,0.1c-3.4,0-5.4-1.2-7.5-3.8
		c-25.6-31.8-51.3-63.5-77-95.2c-1.1-1.4-2.3-2.8-3.9-4.6c-2.2,2.4-4.3,4.7-6.4,7c-27,30.8-54,61.6-81,92.5c-2.5,2.9-5,4.2-8.9,4.1
		c-12.3-0.3-24.7-0.1-37-0.1C1703.5,1269.7,1701.9,1269.7,1698.9,1269.7z"/>
	<path d="M1940.1,1047.1c-8.1-9.3-15.6-17.9-23.4-26.8c6.3-7.2,12.4-14.2,18.7-21c0.7-0.8,2.3-1.2,3.5-1.2c14.8-0.1,29.6-0.1,46-0.1
		C1969.6,1014.8,1955.1,1030.7,1940.1,1047.1z"/>
	<path d="M1814.1,1269.7c14.7-17,28.5-32.9,42.5-49.1c8.1,9,15.8,17.7,24,26.8c-6.2,7.2-12.3,14.4-18.5,21.5
		c-0.5,0.5-1.5,0.9-2.2,0.9C1845.2,1269.7,1830.4,1269.7,1814.1,1269.7z"/>
	<path class="st0" d="M1584.8,1240.9c-16.3-0.2-32.2-2.5-47.2-9.2c-22.7-10.1-39.3-26.8-49.5-49.3c-14.3-31.6-15.4-64-1.9-96
		c16-38,46-57.5,86.5-61.2c23.9-2.2,47,1,68,13.4c28.2,16.6,43.7,42,48.9,73.6c5.7,34.7-1.1,66.7-23.9,94.3
		c-16.9,20.4-39.3,30.8-65.4,33.6C1595.1,1240.5,1589.9,1240.6,1584.8,1240.9z"/>
	<path class="st0" d="M1259.4,1244.2c0-32.9,0-65.2,0-98.1c10.6,0,21.1-0.4,31.4,0.1c19.2,0.9,38.1,3.7,55.7,12.1
		c14.4,6.9,25,17.1,27,33.9c1.8,14.5-2.8,26.6-14.3,35.7c-10.6,8.4-23.2,12-36.2,14.5C1302,1246.3,1281,1245.9,1259.4,1244.2z"/>
	<path class="st0" d="M1259.2,1111.6c0-29.7,0-58.6,0-88.1c3.5-0.4,6.9-0.8,10.3-1c18.4-1.2,36.6-0.8,54.4,4.6
		c5,1.5,10.1,3.6,14.6,6.3c23.6,14,25.3,46,3.3,62.5c-10.2,7.7-22.2,11.2-34.5,13.5C1291.6,1112.3,1275.7,1112.5,1259.2,1111.6z"/>
</g>
</svg>
