<?xml version="1.0" encoding="utf-8"?>
<!-- Generator: Adobe Illustrator 21.1.0, SVG Export Plug-In . SVG Version: 6.00 Build 0)  -->
<svg version="1.1" id="Layer_1" xmlns="http://www.w3.org/2000/svg" xmlns:xlink="http://www.w3.org/1999/xlink" x="0px" y="0px"
	 viewBox="0 0 125 55" style="enable-background:new 0 0 125 55;" xml:space="preserve">
<style type="text/css">
	.st0{fill:#1D1E1C;}
</style>
<g>
	<path class="st0" d="M52.7,12.3c20.6-0.3,20.3,31.3,0.1,30.7C33,43.3,32.3,12.5,52.7,12.3z M52.9,47.7C84,47.6,83.9,7.9,52.8,8
		C21.6,8.3,23.4,48.2,52.9,47.7z"/>
	<polygon class="st0" points="69.5,47.6 76.2,47.6 88.7,32.2 100.4,47.6 108.6,47.6 93,27.1 95.4,24.4 92.3,20.5 89.7,23.1 78,8 
		70,8.1 85.4,28.1 	"/>
	<polygon class="st0" points="85.4,47.6 91.3,39.8 94.6,43.5 92,47.6 	"/>
	<polygon class="st0" points="99.6,11.1 102.8,15.7 109,8 102.3,8 	"/>
	<polygon class="st0" points="86,8 94.1,8 105.8,23 117.9,8 125,8 109,27.1 124.9,47.6 116.5,47.6 104.7,32.1 102.2,34.8 99.2,30.8 
		101.4,28.1 	"/>
	<path class="st0" d="M7.6,43.6v-14c0,0,16.2-1.4,16.2,7.3C23.9,45.6,7.6,43.6,7.6,43.6 M7.5,12.1c0,0,13.9-2,13.9,6
		c0.1,7.9-13.9,6.6-13.9,6.6V12.1z M28.4,32.6c-1.1-1.5-2.6-2.6-4.1-3.5C22.7,28.2,20,27,20,27l-0.4-0.2l0.5-0.2
		c0,0,4.1-1.7,5.8-3.2c2.1-1.8,3.3-4.1,3.1-6.9c-0.1-1.5-0.6-2.9-1.6-4.1c-1.3-1.6-3-2.5-4.9-3.2c-1.8-0.6-3.6-1-5.5-1.1
		C15.1,8.1,13.3,8,11.6,8C7.8,8,0.2,8,0.2,8l0,39.6c0,0,8.3,0,12.7,0c2.6,0,5.2-0.1,7.8-0.6c1.9-0.4,3.8-1,5.4-2.1
		c2.3-1.5,3.7-3.6,4-6.3C30.5,36.4,29.8,34.4,28.4,32.6"/>
</g>
</svg>
